<svg width="20" height="20" viewBox="0 0 20 20" fill="none" xmlns="http://www.w3.org/2000/svg">
<path d="M4.25457 15.7454C3.1182 14.6091 2.34431 13.1613 2.03078 11.5852C1.71724 10.0091 1.87815 8.37534 2.49314 6.89065C3.10813 5.40596 4.14958 4.13698 5.4858 3.2442C6.82201 2.35142 8.39296 1.87493 9.99999 1.875M15.7454 4.25458C16.8818 5.39089 17.6557 6.83865 17.9692 8.4148C18.2827 9.99094 18.1218 11.6247 17.5068 13.1093C16.8918 14.594 15.8504 15.863 14.5142 16.7558C13.178 17.6486 11.607 18.1251 9.99999 18.125" stroke="#1E1E1E" stroke-linecap="round" stroke-linejoin="round"/>
<path d="M14.5016 5.05916C15.2293 5.05916 15.8191 4.4693 15.8191 3.74166C15.8191 3.01403 15.2293 2.42416 14.5016 2.42416C13.774 2.42416 13.1841 3.01403 13.1841 3.74166C13.1841 4.4693 13.774 5.05916 14.5016 5.05916Z" stroke="#1E1E1E" stroke-linecap="round" stroke-linejoin="round"/>
<path d="M5.49835 17.5758C6.22598 17.5758 6.81585 16.986 6.81585 16.2583C6.81585 15.5307 6.22598 14.9408 5.49835 14.9408C4.77071 14.9408 4.18085 15.5307 4.18085 16.2583C4.18085 16.986 4.77071 17.5758 5.49835 17.5758Z" stroke="#1E1E1E" stroke-linecap="round" stroke-linejoin="round"/>
<path d="M8.28003 8.45791L9.59795 11.0933L13.9896 10.6542L11.3546 5.38333L8.28003 8.45791Z" stroke="#1E1E1E" stroke-linecap="round" stroke-linejoin="round"/>
<path d="M8.28 8.45792L6.52333 9.33625C5.99541 9.6 6.04 10.5654 6.30375 11.0933C6.5675 11.6213 7.31291 12.2354 7.84125 11.9717L9.59791 11.0933M9.20958 11.3175L10.3075 13.5133L9.42916 13.9525L8.33125 11.7567" stroke="#1E1E1E" stroke-linecap="round" stroke-linejoin="round"/>
</svg>
